<svg width="40" height="40" viewBox="0 0 40 40" fill="none" xmlns="http://www.w3.org/2000/svg">
  <circle cx="20" cy="20" r="20" fill="#2F2B26"/>
  <path fill-rule="evenodd" clip-rule="evenodd" d="M20 6L23.5 9L20 12L16.5 9L20 6ZM26 12L29 15.5L26 19L23 15.5L26 12ZM20 14L24 18L20 22L16 18L20 14ZM14 12L17 15.5L14 19L11 15.5L14 12ZM9 16.5L12.5 20L9 23.5L5.5 20L9 16.5ZM20 26L23.5 29L20 32L16.5 29L20 26ZM26 21L29.5 24L26 27L22.5 24L26 21ZM14 21L17.5 24L14 27L10.5 24L14 21ZM20 20L23 23L20 26L17 23L20 20Z" fill="url(#paint0_linear)"/>
  <defs>
    <linearGradient id="paint0_linear" x1="20" y1="6" x2="20" y2="34" gradientUnits="userSpaceOnUse">
      <stop stop-color="#FFDB6E"/>
      <stop offset="1" stop-color="#FFBC5E"/>
    </linearGradient>
  </defs>
</svg>
