<svg width="42" height="42" viewBox="0 0 42 42" fill="none" xmlns="http://www.w3.org/2000/svg">
  <path d="M21 1C11.2 1 6.2 6 6.2 6V13.8H21V10.4H10.4V8.8C10.4 8.8 10.4 6.2 13.8 6.2C17.2 6.2 17.2 8.8 17.2 8.8V13.8H6.2V21H21V17.6H10.4V16C10.4 16 10.4 13.4 13.8 13.4C17.2 13.4 17.2 16 17.2 16V21H35.8V13.8H21V17.2H31.6V18.8C31.6 18.8 31.6 21.4 28.2 21.4C24.8 21.4 24.8 18.8 24.8 18.8V13.8H35.8V6H21V9.4H31.6V11C31.6 11 31.6 13.6 28.2 13.6C24.8 13.6 24.8 11 24.8 11V6H21Z" fill="url(#python_logo_gradient)"/>
  <defs>
    <linearGradient id="python_logo_gradient" x1="3.26667" y1="1" x2="37.8" y2="39.1334" gradientUnits="userSpaceOnUse">
      <stop offset="0.259336" stop-color="#FFDB6E"/>
      <stop offset="1" stop-color="#FFBC5E"/>
    </linearGradient>
  </defs>
</svg>
